<svg width="54" height="54" viewBox="0 0 54 54" fill="none" xmlns="http://www.w3.org/2000/svg">
<circle cx="27" cy="27" r="27" fill="#D60101"/>
<path fill-rule="evenodd" clip-rule="evenodd" d="M18.4142 15.5858C17.6332 14.8047 16.3668 14.8047 15.5858 15.5858C14.8047 16.3668 14.8047 17.6332 15.5858 18.4142L24.6716 27.5L15.5858 36.5858C14.8047 37.3668 14.8047 38.6332 15.5858 39.4142C16.3668 40.1953 17.6332 40.1953 18.4142 39.4142L27.5 30.3284L36.5858 39.4142C37.3668 40.1953 38.6332 40.1953 39.4142 39.4142C40.1953 38.6332 40.1953 37.3668 39.4142 36.5858L30.3284 27.5L39.4142 18.4142C40.1953 17.6332 40.1953 16.3668 39.4142 15.5858C38.6332 14.8047 37.3668 14.8047 36.5858 15.5858L27.5 24.6716L18.4142 15.5858Z" fill="white"/>
</svg>
